OpenNagMundari2.sfdir
StartChar: uni0000
Encoding: 0 0 43
Width: 1000
Flags: H
LayerCount: 2
Fore
SplineSet
427 516 m 5
 427 108 l 5
 659 108 l 5
 659 516 l 5
 427 516 l 5
381 600 m 1
 715 600 l 1
 715 32 l 1
 381 32 l 1
 381 600 l 1
EndSplineSet
EndChar
StartChar: uni25CC
Encoding: 44 9676 44
Width: 1000
AnchorPoint: "top" 536 750 basechar 0
AnchorPoint: "bottom" 534 -36 basechar 0
LayerCount: 2
Fore
SplineSet
658.023611026 600.720826913 m 1
 707.554615129 600.528055734 755.480385273 600.386837405 799.117081714 600.283385196 c 1
 728.999461704 657.764942234 635.129978828 693 532 693 c 0
 430.966622364 693 338.821041862 659.183015781 269.188656063 603.761440721 c 1
 310.434227653 603.133666948 358.435870904 602.610667168 409.789569646 602.174954496 c 1
 447.314502124 616.223239052 488.599611573 624 532 624 c 0
 576.875513485 624.00000012 619.489512961 615.685610379 658.023611026 600.720826913 c 1
658.023611026 600.720826913 m 1
 575.601678168 601.041607468 488.734766819 601.505140946 409.789569646 602.174954496 c 1025
805.085887255 483.269406336 m 1
 831.140118998 442.721117754 846 395.846546977 846 346 c 0
 846 301.836118911 834.335137127 260.088530846 813.554783715 223.042050632 c 1
 845.785197236 223.0286076 874.827776752 223.019462128 899.426802165 223.013240343 c 1
 915.950979479 261.233003059 925 302.691033522 925 346 c 0
 925 394.636201315 913.587908945 441.002952704 892.992739873 483.102398036 c 1
 866.854289695 483.141361243 837.185946443 483.195150236 805.085887255 483.269406336 c 1
261.277734858 486.884467752 m 1
 226.085699042 487.443754269 196.19806771 488.083566982 173.871841079 488.815500068 c 1
 151.472924033 445.212614301 139 396.846512665 139 346 c 0
 139 303.074054689 147.889670607 261.966451093 164.136537274 224.028037148 c 1
 189.115771099 223.917997669 218.14088821 223.819736649 250.059566047 223.731993333 c 1
 229.520596867 260.606546372 218 302.11006851 218 346 c 0
 218 397.334864327 233.76050072 445.517628509 261.277734858 486.884467752 c 1
459.739588549 76.3313329613 m 1
 398.453612179 76.4130279968 338.817509007 76.5148655837 285.370665338 76.6418125923 c 1
 352.812102857 28.7092668344 438.609019363 0 532 0 c 0
 625.011319081 1.12123643703e-11 710.490192695 28.4763182264 777.805918025 76.0581870092 c 1
 724.70285262 76.0839938255 665.05450338 76.1212452094 603.500323409 76.1750177555 c 1
 580.547275634 71.4813106587 556.613817504 69 532 69 c 0
 507.114359372 69.0000003644 482.924188214 71.5364184374 459.739588549 76.3313329613 c 1
EndSplineSet
EndChar
StartChar: u1E4D0
Encoding: 124112 124112 0
Width: 594
Flags: HMW
LayerCount: 2
Back
Fore
SplineSet
240.064453125 703.010742188 m 0
 354.208007812 736.682617188 450.755859375 697.362304688 505.056640625 595.088867188 c 0
 541.322265625 526.786132812 538.220703125 467.939453125 494.975585938 403.838867188 c 2
 468.3515625 364.375 l 1
 509.416015625 330.982421875 l 2
 545.552734375 301.596679688 550.48046875 288.482421875 550.48046875 221.696289062 c 0
 550.48046875 126.071289062 523.640625 68.56640625 458.608398438 24.853515625 c 0
 354.208007812 -45.3212890625 146.74609375 -3.779296875 51.6640625 106.338867188 c 2
 21.51953125 141.25 l 1
 56.3203125 176.919921875 l 1
 91.1201171875 212.588867188 l 1
 118.373046875 174.642578125 l 2
 158.057617188 119.38671875 230.3203125 86.607421875 312.448242188 86.607421875 c 0
 397.360351562 86.607421875 439.120117188 122.635742188 439.120117188 195.892578125 c 0
 439.120117188 268.8984375 405.711914062 299.107421875 324.975585938 299.107421875 c 0
 259.551757812 299.107421875 258.16015625 300.055664062 258.16015625 344.642578125 c 0
 258.16015625 386.0390625 262.3359375 390.178710938 304.095703125 390.178710938 c 0
 359.776367188 390.178710938 425.200195312 456.59765625 425.200195312 513.125 c 0
 425.200195312 574.329101562 365.34375 625.015625 295.744140625 622.750976562 c 0
 249.807617188 621.254882812 231.067382812 611.711914062 199.696289062 573.838867188 c 0
 178.322265625 548.036132812 160.719726562 513.076171875 160.719726562 496.428710938 c 0
 160.719726562 459.453125 131.48828125 458.35546875 91.1201171875 493.814453125 c 0
 62.5380859375 518.920898438 61.9306640625 523.75 82.0087890625 566.25 c 0
 114.995117188 636.071289062 167.6796875 681.658203125 240.064453125 703.010742188 c 0
EndSplineSet
EndChar
StartChar: u1E4D1
Encoding: 124113 124113 1
Width: 720
Flags: HW
LayerCount: 2
Back
Fore
SplineSet
191 708 m 0
 191 708 277 708 277 710 c 0
 277 710 277.23046875 708.644104707 277.23046875 547.262695312 c 2
 277.23046875 371.684570312 l 1
 401.380859375 371.684570312 l 1
 401.380859375 372 529 372 529 372 c 1
 529.938476562 543.60546875 l 1
 526 708 l 1
 578 708 l 1
 578 706 618 706 618 706 c 1
 618 706 618 365.099609375 615.154296875 365.099609375 c 1
 615.154296875 5.89453125 l 1
 563.73046875 5.89453125 l 1
 563.73046875 6 526 6 526 6 c 1
 527 6 527 152 527 152 c 1
 527 152 527 298 526 298 c 1
 526 298 394.76953125 298 394.76953125 298.526367188 c 1
 394.76953125 298 275 298 275 298 c 1
 278 122 l 1
 229.48046875 122.947265625 l 2
 187.233421735 123.772071108 175.144464972 133.510679794 119.288085938 213.663085938 c 0
 63.3113766286 293.988162798 58.6954663133 289.210362542 77 332 c 0
 87.5925208965 356.761632101 117.631563684 366.371045014 142.795898438 368.7578125 c 2
 189.077148438 373.147460938 l 1
 189.077148438 538.484375 l 2
 189.077148438 626.433789407 189.499943801 708 191 708 c 0
204 298 m 0
 144 298 l 1
 203 212 l 0
 204 212 204 298 204 298 c 0
EndSplineSet
EndChar
StartChar: u1E4D2
Encoding: 124114 124114 2
Width: 846
Flags: HW
LayerCount: 2
Fore
SplineSet
231.25 702 m 4
 346.7109375 829.89453125 579.615234375 822 673.76953125 687 c 4
 760.948242188 562 782.427734375 -3 700 -3 c 4
 672.641601562 -3 650 117 650 262 c 4
 650 577 567.7421875 714.935546875 395 689.599609375 c 4
 283.823242188 673.293945312 273.905273438 647 260.114257812 332 c 4
 241.724609375 -88 150 -112.990234375 150 302 c 4
 150 522 173.588867188 638.12890625 231.25 702 c 4
EndSplineSet
EndChar
StartChar: u1E4D3
Encoding: 124115 124115 3
Width: 888
Flags: HW
LayerCount: 2
Fore
SplineSet
424.953125 675.36328125 m 1052
164.473632812 730.5 m 4
 214.537109375 835.240234375 308.952148438 704.231445312 428.552734375 709.563476562 c 4
 515.305664062 713.430664062 591.7421875 783.431640625 653.552734375 752.762695312 c 4
 768.225585938 695.8671875 676.052734375 459.466796875 505.526367188 385.0546875 c 4
 320.7890625 304.442382812 291.711914062 139.15234375 458.158203125 115.791015625 c 4
 537.7734375 104.616210938 579.736328125 133.658203125 614.0234375 223.658203125 c 4
 660.939453125 346.815429688 756.579101562 384.950195312 756.579101562 280.5 c 4
 756.579101562 162.079101562 607.66015625 10.5 491.31640625 10.5 c 4
 88.68359375 10.5 85.3447265625 376.706054688 486.579101562 530.043945312 c 4
 557.631835938 557.197265625 614.473632812 599.973632812 614.473632812 626.2890625 c 4
 614.473632812 695.395507812 486.688476562 687.868164062 453.640625 616.815429688 c 4
 431.609375 569.447265625 418.390625 569.447265625 396.358398438 616.815429688 c 4
 358.266601562 698.712890625 235.526367188 687.868164062 235.526367188 602.60546875 c 4
 235.526367188 564.7109375 213.420898438 531.552734375 188.157226562 531.552734375 c 4
 136.052734375 531.552734375 136.077148438 671.087890625 164.473632812 730.5 c 4
EndSplineSet
EndChar
StartChar: u1E4D4
Encoding: 124116 124116 4
Width: 782
Flags: HW
LayerCount: 2
Fore
SplineSet
204.25 666 m 4
 258.5 736 353.461914062 796 410 796 c 4
 555 796 700 653.5 700 511 c 4
 700 406.22265625 680 396 475 396 c 4
 235 396 196.30859375 339.75 320.234375 171 c 4
 382.248046875 86.5556640625 405 82.818359375 525 137.36328125 c 4
 690 212.36328125 762 164.36328125 630 67.36328125 c 4
 480 -42.86328125 321.0703125 -20.875 206.188476562 126 c 4
 73.2177734375 296 72.5 496 204.25 666 c 4
549.615234375 621 m 4
 470.692382812 716 379.307617188 716 300.384765625 621 c 4
 222.307617188 527.018554688 280 446 425 446 c 4
 570 446 627.692382812 527.018554688 549.615234375 621 c 4
EndSplineSet
EndChar
StartChar: u1E4D5
Encoding: 124117 124117 5
Width: 762
Flags: HW
LayerCount: 2
Fore
SplineSet
152.380859375 705 m 4
 231.501953125 784.12109375 405.291015625 776.428710938 475.131835938 690.713867188 c 4
 508.671875 649.551757812 522.235351562 559.76171875 507.142578125 478.809570312 c 4
 484.947265625 359.76171875 496.932617188 336.154296875 585.713867188 324.047851562 c 4
 608.3515625 320.9609375 685.932617188 331.662109375 701 323 c 5
 739.569335938 300.825195312 696.859375 240.60546875 704.76171875 155 c 4
 715.311523438 40.7138671875 699.743164062 0.23828125 645.23828125 0.23828125 c 4
 596.926757812 0.23828125 571.428710938 45.4765625 571.428710938 131.190429688 c 6
 571.428710938 262.142578125 l 5
 497 245 l 5
 510.959960938 143.095703125 l 6
 532.830078125 -16.5498046875 159.392578125 -54.0283203125 111.885742188 71.6669921875 c 4
 70.1171875 182.178710938 147.619140625 298.197265625 290.4765625 339.013671875 c 4
 404.76171875 371.666992188 404.76171875 371.666992188 300 376.313476562 c 4
 153.000976562 382.833007812 161.904296875 476.428710938 309.5234375 476.428710938 c 4
 385.713867188 476.428710938 428.571289062 502.142578125 428.571289062 547.857421875 c 4
 428.571289062 657.380859375 283.180664062 696.51953125 216.30078125 605 c 4
 184.981445312 562.142578125 143.697265625 524.047851562 128.571289062 524.047851562 c 4
 74.8125 524.047851562 90.4765625 643.095703125 152.380859375 705 c 4
380.952148438 166.904296875 m 4
 380.952148438 238.333007812 276.87109375 262.823242188 219.047851562 205 c 4
 159.845703125 145.797851562 190.4765625 95.4765625 285.713867188 95.4765625 c 4
 338.095703125 95.4765625 380.952148438 127.619140625 380.952148438 166.904296875 c 4
EndSplineSet
EndChar
StartChar: u1E4D6
Encoding: 124118 124118 6
Width: 860
Flags: HW
LayerCount: 2
Fore
SplineSet
115.7890625 616.684570312 m 2
 106.500882554 748.26261974 124.493164062 802 157 802 c 4
 187.702148438 802 210.526367188 756.158203125 210.526367188 650.89453125 c 0
 210.526367188 412.1875 332.579101562 405.841796875 356.455078125 647.947265625 c 0
 378.989257812 876.438476562 471.684570312 863.737304688 471.684570312 632.158203125 c 0
 471.684570312 390.052734375 617.600831356 395.970582309 641.243164062 635.10546875 c 0
 650.609375 729.841796875 677.993164062 794.676757812 715 808 c 0
 763.732421875 825.54296875 789.473632812 740.368164062 789.473632812 424.579101562 c 0
 789.473632812 82.4736328125 773.87890625 -1.7373046875 710.526367188 -1.7373046875 c 0
 655.606445312 -1.7373046875 631.579101562 53.5263671875 631.579101562 179.841796875 c 0
 631.579101562 359.509765625 628.947265625 361.586914062 381.579101562 377.2109375 c 2
 131.579101562 393 l 1
 115.7890625 616.684570312 l 2
EndSplineSet
EndChar
StartChar: u1E4D7
Encoding: 9 124119 7
Width: 674
Flags: W
AnchorPoint: "top" 340 763 basechar 0
AnchorPoint: "bottom" 358 -55 basechar 0
LayerCount: 2
Back
Fore
SplineSet
202.044921875 141.358398438 m 0
 193.894716127 141.358398438 83.3371658093 39.3856458701 82.8203125 40.1669921875 c 0
 82.6123046875 40.4814453125 70.41796875 57.6328125 55.552734375 78.5166015625 c 0
 30.1484375 114.208984375 29.025390625 116.643554688 35.2431640625 122.5625 c 0
 42.6867924175 129.648146228 216.601367892 280.788202601 218.405273438 282.41796875 c 0
 226.012637447 289.287460021 139.612010806 352.521494962 115.040039062 417.783203125 c 0
 107.803710938 437.001953125 107.084960938 444.7421875 108.619140625 486.889648438 c 0
 117.15576931 721.475271385 332.226526603 729.838732377 400.627929688 710.737304688 c 0
 450.2734375 696.874023438 496.771484375 667.803710938 527.884765625 631.176757812 c 0
 555.071289062 599.173828125 584.91796875 539.288085938 596.012695312 494.483398438 c 0
 600.541015625 476.198242188 611.62109375 352.473632812 611.62109375 320.19921875 c 2
 611.62109375 300.833984375 l 1
 593.379882812 300.833984375 l 2
 583.323242188 300.833984375 559.53125 301.94140625 540.349609375 303.301757812 c 2
 505.560546875 305.770507812 l 1
 508.00390625 318.6796875 l 2
 512.670898438 343.342773438 510.2109375 461.069335938 504.45703125 488.408203125 c 0
 484.55859375 582.955078125 409.569335938 650.576171875 330.672851562 645.119140625 c 0
 268.848632812 640.842773438 228.603515625 603.458984375 207.337890625 530.555664062 c 0
 190.282226562 472.081054688 201.797851562 436.067382812 254.323242188 383.619140625 c 0
 272.752929688 365.217773438 289.994140625 350.1953125 292.685546875 350.1953125 c 0
 299.751025215 350.1953125 393.536294589 448.918945312 399.123046875 448.918945312 c 0
 401.18359375 448.918945312 415.2109375 430.123046875 430.151367188 407.340820312 c 2
 457.418945312 365.763671875 l 1
 419.80859375 335.0078125 l 2
 399.123046875 318.091796875 382.198242188 302.713867188 382.198242188 300.833984375 c 0
 382.198242188 294.360228483 470.60289633 257.477431985 492.078125 164.140625 c 0
 503.937245441 112.607176389 456.490415341 29.5886449298 408.149414062 8.65234375 c 0
 406.121494996 7.77400150596 235.248406061 -54.883304705 212.271484375 110.981445312 c 0
 209.009765625 134.5234375 206.708984375 141.358398438 202.044921875 141.358398438 c 0
364.521484375 200.0078125 m 0
 341.955078125 207.666015625 333.985351562 207.426757812 319.765625 198.665039062 c 0
 299.87890625 186.413085938 291.272460938 152.749023438 298.901367188 117.056640625 c 0
 300.524414062 109.462890625 307.354492188 101.045898438 319.389648438 91.806640625 c 2
 337.442382812 77.947265625 l 1
 355.495758943 82.1237072027 373.548823355 86.3004604993 391.6015625 90.4775390625 c 1
 405.140625 143.256835938 l 1
 393.481445312 168.696289062 l 2
 382.692382812 192.23828125 380.53125 194.575195312 364.521484375 200.0078125 c 0
EndSplineSet
EndChar
StartChar: u1E4D8
Encoding: 124120 124120 8
Width: 772
Flags: HW
LayerCount: 2
Fore
SplineSet
175.484375 699 m 4
 218.611328125 742.389648438 322.5 779 402.5 779 c 4
 548.670898438 779 550 776.5 550 501.5 c 4
 550 341.5 535.825195312 191.139648438 559 211 c 4
 745.154296875 370.52734375 749.654296875 214.295898438 610 69 c 4
 487.8046875 -58.130859375 400 -11 400 179 c 4
 400 289 381.896484375 317.05859375 325 295.243164062 c 4
 140 224.310546875 21.5634765625 544.140625 175.484375 699 c 4
400 554 m 4
 400 634 373 679 325 679 c 4
 277 679 250 634 250 554 c 4
 250 474 277 429 325 429 c 4
 373 429 400 474 400 554 c 4
EndSplineSet
EndChar
StartChar: u1E4D9
Encoding: 124121 124121 9
Width: 794
Flags: HW
LayerCount: 2
Fore
SplineSet
316.513671875 737.737304688 m 4
 391.845703125 879.30859375 582.12890625 848.262695312 671.3671875 679.841796875 c 4
 749.450195312 532.473632812 726.03125 184.943359375 630.225585938 69.3154296875 c 4
 546.122070312 -32.1875 322.68359375 -25.4208984375 282.654296875 79.841796875 c 4
 263.692382812 129.703125 215.7890625 147.048828125 152.631835938 126.920898438 c 4
 16.2109375 83.4462890625 26.3154296875 181.453125 168.420898438 280.056640625 c 4
 284.2109375 360.400390625 290.732421875 358.7890625 318.420898438 243 c 4
 351.14453125 106.158203125 517.233398438 56.958984375 584.936523438 164.052734375 c 4
 662.09375 286.100585938 636.841796875 352.356445312 500 386.913085938 c 4
 326.315429688 430.772460938 240.491210938 594.8671875 316.513671875 737.737304688 c 4
568.420898438 582.473632812 m 4
 559.608398438 645.631835938 522.399414062 705.6015625 484.2109375 718.196289062 c 4
 384.615234375 751.041015625 400 540.03515625 500 501.64453125 c 4
 562.66796875 477.5859375 580.170898438 498.262695312 568.420898438 582.473632812 c 4
EndSplineSet
EndChar
StartChar: u1E4DA
Encoding: 12 124122 10
Width: 569
Flags: W
AnchorPoint: "top" 253 754 basechar 0
AnchorPoint: "bottom" 226 -46 basechar 0
LayerCount: 2
Back
Fore
SplineSet
37.8154296875 694.359375 m 2
 37.8154296875 706.5234375 l 1
 61.341796875 706.5234375 l 2
 74.263671875 706.5234375 100.030273438 705.474609375 118.502929688 704.197265625 c 2
 152.137695312 701.872070312 l 1
 145.795898438 687.205078125 l 2
 135.725085458 663.912988894 116.39540988 565.308443918 138.78125 540.173828125 c 0
 153.622070312 523.506835938 175.490234375 515.790039062 213.1328125 513.935546875 c 2
 246.94140625 512.26953125 l 1
 262.452148438 524.432617188 l 2
 276.317382812 535.306640625 278.5234375 539.100585938 283.250976562 560.20703125 c 0
 289.903320312 589.899414062 302.018554688 667.080078125 303.411132812 688.635742188 c 2
 304.451171875 704.734375 l 1
 407.271484375 706.880859375 l 1
 407.271484375 697.9375 l 2
 407.271484375 679.325401896 338.928633264 320.905167472 341.74609375 318.27734375 c 0
 344.141672742 316.038716485 387.591816287 308.641183977 440.03515625 274.607421875 c 2
 453.627929688 265.786132812 l 1
 471.404296875 283.44921875 l 2
 491.270507812 303.189453125 525.056640625 330.895507812 529.26171875 330.895507812 c 0
 532.05078125 330.895507812 555.424804688 274.2265625 553.311523438 272.58984375 c 0
 552.69263591 272.110578504 493.193085129 230.131830364 489.702148438 226.971679688 c 0
 488.064453125 225.48828125 492.350585938 214.451171875 499.287109375 202.288085938 c 0
 510.0703125 183.380859375 511.834960938 177.067382812 511.834960938 157.391601562 c 0
 511.834960938 86.55859375 454.244140625 35.275390625 397.512695312 55.5908203125 c 0
 378.116210938 62.537109375 354.990234375 115.177734375 354.990234375 152.3828125 c 0
 354.990234375 178.85546875 363.02734375 196.098632812 384.267578125 215.1953125 c 2
 399.952148438 229.296875 l 1
 361.08984375 233.58984375 l 2
 334.251953125 236.5546875 321.526367188 236.720703125 319.961914062 234.126953125 c 0
 307.643102769 213.69244697 304.412341661 82.2068655715 246.245117188 24.5166015625 c 0
 226.250976562 4.6875 208.252929688 -1.0673828125 157.71484375 -3.7900390625 c 0
 98.810546875 -6.9638671875 83.310546875 -2.3740234375 54.89453125 26.65625 c 0
 27.302734375 54.8447265625 13.4169921875 96.9326171875 13.4169921875 152.3828125 c 0
 13.4169921875 189.9453125 34.943359375 238.6953125 66.3349609375 272.225585938 c 0
 102.560546875 310.919921875 142.030273438 326.88671875 210.344726562 330.482421875 c 2
 252.169921875 332.684570312 l 1
 258.094726562 368.458007812 l 2
 261.737217858 390.443901947 264.019280647 404.218318084 264.369140625 423.908203125 c 1
 234.045898438 423.970703125 l 2
 149.349609375 424.14453125 70.076171875 468.875976562 40.787109375 533.018554688 c 2
 30.49609375 555.556640625 l 1
 34.15625 618.876953125 l 2
 36.1611328125 653.577148438 37.8154296875 687.694335938 37.8154296875 694.359375 c 2
234.729492188 230.012695312 m 2
 237.182617188 248.615234375 l 1
 213.307617188 248.436523438 l 2
 93.789544781 247.537692546 70.0959876004 91.4353394318 140.984375 83.193359375 c 0
 172.514648438 79.52734375 188.454101562 89.7783203125 205.740234375 124.836914062 c 0
 216.583984375 146.829101562 230.340820312 196.743164062 234.729492188 230.012695312 c 2
462.655273438 119.11328125 m 0
 474.470636383 152.186556885 442.597388725 184.221679688 440.03515625 184.221679688 c 0
 439.312920197 184.221679688 396.37319897 159.60298294 402.217773438 122.690429688 c 0
 404.20703125 110.125976562 406.2265625 107.625976562 418.7734375 102.1875 c 0
 440.03515625 92.9736328125 455.440429688 98.916015625 462.655273438 119.11328125 c 0
EndSplineSet
EndChar
StartChar: u1E4DB
Encoding: 124123 124123 11
Width: 726
Flags: HW
LayerCount: 2
Fore
SplineSet
77.8232421875 757.587890625 m 0
 150.293945312 830.05859375 326.293945312 841.05859375 326.293945312 773.118164062 c 0
 326.293945312 747.494140625 279.706054688 714.881835938 222.764648438 700.647460938 c 0
 165.823242188 686.412109375 119.235351562 637.494140625 119.235351562 591.940429688 c 0
 119.235351562 542.247070312 160.646484375 509.118164062 222.764648438 509.118164062 c 0
 279.706054688 509.118164062 326.293945312 485.823242188 326.293945312 457.353515625 c 0
 326.293945312 428.235351562 290.05859375 405.587890625 243.470703125 405.587890625 c 0
 129.823242188 405.587890625 170.999997889 231.806629623 290.05859375 208.966796875 c 0
 389.128590686 189.961515114 492.442382812 134.97265625 531 228 c 4
 555.568359375 287.276367188 533.353515625 461.295835331 533.353515625 566.05859375 c 0
 533.353515625 757.587890625 552.369140625 819.706054688 611 819.706054688 c 0
 673.118164062 819.706054688 688.646484375 736.881835938 688.646484375 405.587890625 c 0
 688.646484375 162.293945312 667.293945312 -8.529296875 636.881835938 -8.529296875 c 0
 607.302734375 -8.529296875 585.118164062 22.529296875 585.118164062 63.9404296875 c 0
 585.118164062 117.340820312 533.353515625 129.479492188 388.412109375 110.067382812 c 0
 165.823242188 80.255859375 37.458984375 182.370117188 81.9912109375 353.823242188 c 0
 96.78125 410.764648438 87.91796875 469.931640625 62.2939453125 485.306640625 c 0
 -3.7822265625 524.952148438 5.353515625 685.118164062 77.8232421875 757.587890625 c 0
EndSplineSet
EndChar
StartChar: u1E4DC
Encoding: 124124 124124 12
Width: 836
Flags: HW
LayerCount: 2
Fore
SplineSet
132.125976562 501.947265625 m 0
 104.8125 882.895507812 198.524414062 896.092773438 237.514648438 516.790039062 c 0
 268.53515625 215 363.89453125 71.5732421875 499.071289062 123.391601562 c 0
 573.283203125 151.838867188 574.481445312 165.526367188 509.266601562 239.737304688 c 0
 361.4453125 407.947265625 318.0390625 539.708984375 367.471679688 670.157226562 c 0
 421.840820312 813.631835938 571.4453125 835.50390625 672.022460938 714.68359375 c 0
 837.21484375 516.24609375 677.177734375 7.2109375 449.598632812 7.2109375 c 0
 263.478515625 7.2109375 155.538085938 175.420898438 132.125976562 501.947265625 c 0
605.831054688 447.526367188 m 2
 625.62109375 635.526367188 539.672851562 767.8046875 486.893554688 630.578125 c 0
 468.922851562 583.853515625 484.229492188 487.10546875 521.334960938 412.895507812 c 2
 588.124023438 279.31640625 l 1
 605.831054688 447.526367188 l 2
EndSplineSet
EndChar
StartChar: u1E4DD
Encoding: 124125 124125 13
Width: 778
Flags: HW
LayerCount: 2
Fore
SplineSet
246.186523438 515.106445312 m 1052
298.721679688 751.77734375 m 4
 405.341796875 858.3984375 519.403320312 804 572.467773438 621.221679688 c 4
 584.759765625 578.8828125 576.818359375 485.203125 595.866210938 454.946289062 c 4
 619.109375 418.028320312 670.037109375 448.888671875 690.388671875 448.888671875 c 4
 726.944335938 448.888671875 758.27734375 424.786132812 758.27734375 396.666992188 c 4
 758.27734375 368.814453125 721.689453125 346.104492188 679.944335938 344.444335938 c 4
 645.5 343.07421875 586.834960938 350.5234375 575.186523438 338.38671875 c 4
 562.73046875 325.408203125 601.611328125 242.333007812 601.611328125 219.111328125 c 4
 601.611328125 72.888671875 476.27734375 -44.0888671875 366.611328125 -0.22265625 c 4
 322.221679688 17.533203125 273.568359375 99 254.333984375 187.77734375 c 4
 245.3984375 229.01953125 253.283203125 315.572265625 235.846679688 343.086914062 c 4
 215.749023438 374.799804688 169.4609375 344.444335938 147.27734375 344.444335938 c 4
 51.255859375 344.444335938 51.78125 470.633789062 157.721679688 466.38671875 c 4
 202.830078125 464.578125 218.041992188 420.1484375 233.966796875 450.247070312 c 4
 243.565429688 468.388671875 236.055664062 572.935546875 236.055664062 592.5 c 4
 236.055664062 644.721679688 264.84765625 717.904296875 298.721679688 751.77734375 c 4
497.166992188 553.333984375 m 4
 491.4765625 662.8515625 427.833007812 729.444335938 371.833984375 673.444335938 c 4
 307.057617188 608.668945312 347.315429688 480.848632812 418.833984375 448.888671875 c 4
 464.791015625 428.3515625 501.913085938 461.984375 497.166992188 553.333984375 c 4
531.006835938 231.2265625 m 4
 531.006835938 320.00390625 502.987304688 367.00390625 450.061523438 367.00390625 c 4
 394.873046875 367.00390625 340.59765625 307.888671875 351.999023438 229.555664062 c 4
 376.319335938 62.4443359375 531.006835938 67.615234375 531.006835938 231.2265625 c 4
EndSplineSet
EndChar
StartChar: u1E4DE
Encoding: 16 124126 14
Width: 589
Flags: W
AnchorPoint: "top" 271 745 basechar 0
AnchorPoint: "bottom" 286 -49 basechar 0
LayerCount: 2
Back
Fore
SplineSet
39.57421875 678.196289062 m 0
 64.740234375 710.974609375 70.5458984375 716.641601562 75.09375 712.865234375 c 0
 84.3857421875 705.150390625 228.043945312 578.525390625 251.240234375 557.603515625 c 2
 273.349609375 537.663085938 l 1
 305.606445312 564.790039062 l 2
 323.37109375 579.729492188 371.571289062 620.185546875 412.889648438 654.836914062 c 2
 487.915039062 717.755859375 l 1
 524.521484375 668.588867188 l 2
 544.717773438 641.4609375 561.858398438 617.478515625 562.758789062 615.087890625 c 0
 563.663085938 612.685546875 518.359375 582.213867188 461.09375 546.705078125 c 0
 404.190429688 511.421875 357.797851562 481.724609375 357.797851562 480.583007812 c 0
 357.797851562 479.456054688 367.221679688 475.178710938 378.45703125 471.205078125 c 0
 430.067382812 452.953125 482.512695312 403.158203125 512.427734375 344.006835938 c 2
 529.958007812 309.344726562 l 1
 529.958007812 247.178710938 l 2
 529.958007812 177.100585938 526.66015625 157.798828125 507.49609375 115.6875 c 0
 482.546875 60.869140625 432.4609375 22.267578125 362.147460938 3.66796875 c 0
 321.443359375 -7.0986328125 292.196289062 -7.955078125 250.153320312 0.388671875 c 0
 162.080078125 17.869140625 99.6220703125 60.46484375 70.04296875 123.223632812 c 0
 49.8310546875 166.10546875 44.6484375 192.170898438 44.6484375 250.946289062 c 0
 44.6484375 296.911132812 45.5537109375 304.094726562 54.046875 325.544921875 c 0
 78.95703125 388.46484375 109.892578125 424.291015625 165.704101562 454.854492188 c 0
 186.36328125 466.16796875 203.889648438 477.200195312 204.485351562 479.264648438 c 0
 205.08203125 481.333984375 160.629882812 516.075195312 105.901367188 556.3125 c 0
 46.8232421875 599.748046875 6.89453125 631.51171875 7.861328125 634.302734375 c 0
 8.7548828125 636.883789062 23.0869140625 656.720703125 39.57421875 678.196289062 c 0
314.66796875 405.041992188 m 0
 299.083007812 413.450195312 282.979492188 420.318359375 279.329101562 420.11328125 c 0
 275.58984375 419.90234375 264.288085938 413.653320312 253.77734375 405.984375 c 0
 243.266601562 398.314453125 228.357421875 388.086914062 220.0703125 382.861328125 c 0
 196.159179688 367.78125 172.728515625 340.9921875 160.712890625 314.99609375 c 0
 149.985351562 291.784179688 149.40234375 288.24609375 149.54296875 247.178710938 c 0
 149.715820312 196.692382812 155.1015625 175.775390625 177.482421875 138.670898438 c 0
 189.299804688 119.079101562 195.501953125 112.994140625 213.002929688 103.8203125 c 0
 232.948242188 93.3642578125 236.743164062 92.705078125 276.973632812 92.705078125 c 0
 387.880859375 92.705078125 421.990234375 120.340820312 425.78125 213.26953125 c 0
 428.578125 281.840820312 413.4375 321.587890625 367.583984375 366.048828125 c 0
 353.751953125 379.4609375 330.977539062 396.243164062 314.66796875 405.041992188 c 0
EndSplineSet
EndChar
StartChar: u1E4DF
Encoding: 17 124127 15
Width: 562
Flags: W
AnchorPoint: "top" 260 762 basechar 0
AnchorPoint: "bottom" 264 -54 basechar 0
LayerCount: 2
Back
Fore
SplineSet
175.883789062 711.767578125 m 0
 191.639480371 718.013904837 198.369662328 719.998660875 219.424695305 719.998660875 c 0
 227.696162152 719.998660875 238.178397809 719.69235146 252.287109375 719.217773438 c 0
 308.624499897 717.323275889 486.910634385 711.327921086 521.067382812 458.103515625 c 0
 524.695577257 431.203998037 526.519279754 385.124694943 526.519279754 340.440230072 c 0
 526.519279754 296.784602219 524.778590103 254.460321154 521.279296875 232.653320312 c 0
 509.440429688 158.876953125 488.59375 110.252929688 450.952148438 68.62109375 c 0
 407.358398438 20.40625 354.38671875 -1.7119140625 274.556640625 -5.0322265625 c 0
 261.300218682 -5.58372083162 251.635411164 -5.95689510818 243.924789947 -5.95689510818 c 0
 224.532938213 -5.95689510818 217.501294803 -3.5965716346 196.783203125 4.2236328125 c 0
 147.446289062 22.845703125 118.022460938 43.361328125 77.2099609375 87.5927734375 c 0
 40.7152184111 127.144919829 7.62742798835 178.753149218 7.62742798835 190.390653107 c 0
 7.62742798835 196.220723188 83.0929822382 258.624203042 89.8435329798 258.624203042 c 0
 95.9783491713 258.624203042 109.855494905 162.324634352 188.903320312 121.591796875 c 0
 218.41015625 106.387695312 239.267578125 102.701171875 295.798828125 102.701171875 c 2
 345.478515625 102.701171875 l 1
 370.83203125 129.564453125 l 2
 419.291930015 180.909676858 443.258925348 237.096489252 443.258925348 299.692896734 c 0
 443.258925348 311.926432066 442.343508852 324.40478111 440.516601562 337.139648438 c 0
 433.87446429 383.425561798 437.272149161 457.594227098 429.401367188 487.314453125 c 0
 412.133789062 552.518554688 375.286132812 592.358398438 310.189453125 616.206054688 c 0
 283.211914062 626.088867188 273.186523438 627.833984375 240.637695312 628.314453125 c 0
 234.841208505 628.400094584 229.916618078 628.466631916 225.637289798 628.466631916 c 0
 202.3464105 628.466631916 198.169758652 626.495635008 176.568359375 614.90625 c 0
 129.288085938 589.5390625 105.71484375 559.850585938 97.8603515625 515.77734375 c 0
 95.5244140625 502.668945312 93.19921875 492.18359375 92.6279296875 492.18359375 c 0
 91.7813039255 492.18359375 16.1122676518 526.880291531 16.1122676518 528.420388199 c 0
 16.1122676518 534.481794981 43.0848569107 593.550220257 53.7744140625 610.526367188 c 0
 81.1181640625 653.948242188 127.916992188 692.75 175.883789062 711.767578125 c 0
EndSplineSet
EndChar
StartChar: u1E4E0
Encoding: 18 124128 16
Width: 712
Flags: HW
LayerCount: 2
Back
Fore
SplineSet
12.67578125 634.473632812 m 0
 56.3874736364 725.072195012 173.050916011 729.758517385 214.5859375 680.625 c 0
 235.921875 655.387695312 241.606445312 626.048828125 235.876953125 570.740234375 c 2
 232.765625 540.705078125 l 1
 576.428710938 540.705078125 l 1
 576.428710938 431.918945312 l 1
 548.920898438 425.487304688 l 2
 474.309570312 408.041992188 428.826171875 368.795898438 412.46875 307.749023438 c 0
 404.814453125 279.178710938 405.130859375 223.333007812 413.09765625 196.764648438 c 0
 421.666015625 168.194335938 431.228515625 156.633789062 455.091796875 145.999023438 c 0
 492.020507812 129.541015625 536.78515625 135.732421875 559.952148438 160.502929688 c 0
 577.889648438 179.682617188 591.24609375 221.671875 591.41015625 259.399414062 c 0
 591.497070312 279.544921875 591.930664062 280.547851562 599.791992188 278.791015625 c 0
 608.458984375 276.854492188 683.293945312 265.9921875 687.96875 265.9921875 c 0
 689.433710083 265.9921875 693.642237063 180.847987272 655.491210938 123.141601562 c 0
 622.295898438 72.9326171875 560.225585938 41.1845703125 485.614257812 36.251953125 c 0
 457.352539062 34.3837890625 451.58984375 35.1279296875 436.627929688 42.57421875 c 0
 390.278320312 65.640625 347.724609375 103.2890625 330.245117188 136.694335938 c 0
 308.423828125 178.395507812 302.372070312 285.771484375 319.243164062 331.923828125 c 0
 336.6484375 379.540039062 363.24609375 412.1796875 403.466796875 435.282226562 c 2
 427.583984375 449.133789062 l 1
 330.36328125 449.133789062 l 2
 256.12890625 449.133789062 232.741210938 448.051757812 231.447265625 444.555664062 c 0
 229.970837501 440.572705765 198.520988878 30.5171964946 197.532226562 21.1318359375 c 2
 195.083007812 -2.126953125 l 1
 143.646484375 0.4365234375 l 2
 115.384765625 1.845703125 91.701171875 3.453125 91.080078125 4.00390625 c 0
 89.83203125 5.111328125 119.016601562 426.791015625 122.698242188 460.85546875 c 2
 124.994140625 482.099609375 l 1
 106.529296875 482.099609375 l 2
 60.93359375 482.099609375 22.7607421875 505.971679688 9.888671875 542.536132812 c 0
 0.2177734375 570.0078125 1.4677734375 611.244140625 12.67578125 634.473632812 c 0
142.328125 634.182617188 m 0
 123.455078125 649.608398438 85.6328125 641.798828125 79.8779296875 621.287109375 c 0
 74.5341796875 602.240234375 77.6962890625 574.637695312 86.4658203125 563.78125 c 0
 97.56640625 550.038085938 124.994140625 545.602539062 139.313476562 555.233398438 c 0
 161.545898438 570.1875 163.333984375 617.01171875 142.328125 634.182617188 c 0
EndSplineSet
EndChar
StartChar: u1E4E1
Encoding: 19 124129 17
Width: 626
Flags: W
AnchorPoint: "top" 314 760 basechar 0
AnchorPoint: "bottom" 298 -46 basechar 0
LayerCount: 2
Back
Fore
SplineSet
240.583007812 711.075195312 m 0
 255.38671875 715.565429688 314.188476562 715.080078125 336.689453125 710.28125 c 0
 398.091796875 697.1875 436.875 657.884765625 439.189453125 606.411132812 c 0
 440.719269599 572.35055324 401.171470109 492.22644578 406.291015625 487.51953125 c 0
 408.456322933 485.528373213 408.456322933 485.528373213 513.6484375 496.825195312 c 2
 533.098632812 498.915039062 l 1
 535.578125 480.872070312 l 2
 536.921875 471.091796875 538.056640625 453.5234375 538.056640625 442.5078125 c 2
 538.056640625 422.186523438 l 1
 374.064453125 422.186523438 l 1
 335.926757812 405.49609375 l 2
 264.991210938 374.452148438 212.000976562 332.661132812 193.3359375 293.0390625 c 0
 186.55859375 278.65234375 185.283203125 268.728515625 185.283203125 230.364257812 c 0
 185.283203125 188.581054688 186.165039062 182.915039062 195.865234375 162.372070312 c 0
 210.328125 131.741210938 242.490234375 101.869140625 285.204101562 79.3935546875 c 0
 316.858398438 62.73828125 321.633789062 61.3330078125 346.60546875 61.3330078125 c 0
 489.74042782 61.3330078125 505.355871203 252.906366604 501.850585938 277.084960938 c 2
 499.538085938 293.0390625 l 1
 603.272460938 293.0390625 l 1
 600.85546875 271.0078125 l 2
 594.4375 212.51171875 580.34765625 155.067382812 562.657226562 115.271484375 c 0
 541.549804688 67.7890625 473.604492188 17.0849609375 411.439453125 2.42578125 c 0
 397.1796875 -0.9375 368.34375 -3.240234375 340.50390625 -3.240234375 c 0
 295.120117188 -3.240234375 292.515625 -2.794921875 260.415039062 10.458984375 c 0
 208.928710938 31.716796875 176.44140625 52.376953125 145.17578125 83.744140625 c 0
 100.663085938 128.401367188 84.21875 166.930664062 84.21875 226.565429688 c 0
 84.21875 286.9609375 104.640625 332.905273438 153.103515625 381.54296875 c 0
 187.075195312 415.63671875 192.1484375 413.411132812 99.4736328125 405.063476562 c 0
 64.7685546875 401.9375 32.6982421875 399.395507812 27.9658203125 399.395507812 c 0
 19.6416015625 399.395507812 19.384765625 400.53515625 19.384765625 437.379882812 c 2
 19.384765625 475.364257812 l 1
 101.380859375 475.364257812 l 2
 182.61328125 475.364257812 183.376953125 475.440429688 183.376953125 483.53125 c 0
 183.376953125 488.001953125 174.765625 515.248046875 164.348632812 543.736328125 c 0
 139.625976562 611.348632812 139.407226562 622.3984375 162.174804688 653.131835938 c 0
 183.936523438 682.506835938 210.073242188 701.821289062 240.583007812 711.075195312 c 0
325.629882812 616.856445312 m 2
 312.90234375 629.704101562 309.612304688 631.088867188 292.068359375 630.984375 c 0
 258.125976562 630.780273438 246.038085938 621.274414062 238.6015625 588.9375 c 0
 236.503223207 579.814080897 260.294765457 501.953125 291.305664062 501.953125 c 0
 317.770507812 501.953125 330.193359375 521.325195312 336.126953125 571.844726562 c 2
 339.741210938 602.612304688 l 1
 325.629882812 616.856445312 l 2
EndSplineSet
EndChar
StartChar: u1E4E2
Encoding: 124130 124130 18
Width: 680
Flags: HW
LayerCount: 2
Fore
SplineSet
466 338 m 5
 445.823242188 300.947265625 l 5
 467.823242188 264.947265625 l 5
 510 266 l 5
 530.176757812 303.052734375 l 5
 508.176757812 339.052734375 l 5
 466 338 l 5
230.448242188 483.333007812 m 0
 351.81640625 816.666992188 424.450206222 878.162044104 478.357421875 675 c 0
 498.739038793 598.187074214 477.5073502 446.601277957 564.583007812 577.083007812 c 0
 587.000782788 610.675749327 625 575 625 533.333007812 c 0
 625 495.833007812 605.859375 466.666992188 581.25 466.666992188 c 0
 556.25 466.666992188 545.536132812 435.416992188 556.25 393.75 c 0
 566.25 354.861328125 587.638671875 277.083007812 602.083007812 227.083007812 c 0
 623.75 152.083007812 613.333007812 133.333007812 550 133.333007812 c 0
 404.166992188 133.333007812 350.018554688 342.83203125 449 448 c 0
 470.568359375 470.916992188 435.937319404 524.999932276 418.75 570.833007812 c 0
 393.75 637.5 372.780273438 608.333007812 313.899414062 425 c 0
 236.283203125 183.333007812 185.874023438 101.625976562 141.666992188 145.833007812 c 0
 128 159.5 168.248046875 312.5 230.448242188 483.333007812 c 0
EndSplineSet
EndChar
StartChar: u1E4E3
Encoding: 21 124131 19
Width: 600
Flags: W
AnchorPoint: "top" 308 764 basechar 0
AnchorPoint: "bottom" 296 -40 basechar 0
LayerCount: 2
Back
Fore
SplineSet
123.969726562 554.892578125 m 0
 123.601550182 732.414234328 308.602322981 719.417271488 350.657226562 711.526367188 c 0
 398.200195312 702.60546875 439.290039062 670.435546875 460.052734375 625.876953125 c 0
 474.655273438 594.538085938 484.953125 540.223632812 479.953125 520.91015625 c 0
 473.291992188 495.177734375 455.250976562 465.028320312 426.631835938 431.801757812 c 2
 399.314453125 400.084960938 l 1
 428.471679688 397.442382812 l 2
 519.894653418 389.152039775 580.804313176 341.129254797 582.057617188 340.072265625 c 2
 592.828125 330.98828125 l 1
 560.142578125 292.852539062 l 2
 542.020507812 271.708984375 526.463867188 254.717773438 525.228515625 254.717773438 c 0
 521.929857688 254.717773438 463.040742996 311.074094912 408.599609375 317.514648438 c 0
 384.45703125 320.370117188 381.158203125 315.921875 400.428710938 306.493164062 c 0
 500.532470843 257.515161695 531.869752923 39.6883934718 344.713867188 -0.271484375 c 0
 309.057617188 -7.8837890625 286.30078125 -7.3486328125 251.485351562 1.921875 c 0
 172.743164062 22.8916015625 129.444335938 68.5126953125 119.067382812 141.444335938 c 0
 114.060546875 176.630859375 117.057617188 193.171875 135.485351562 232.0625 c 0
 144.147460938 250.344726562 156.400390625 265.998046875 183.514648438 293.424804688 c 0
 223.37890625 333.749023438 223.62890625 332.694335938 175.713867188 326.38671875 c 0
 95.2519838123 315.794230412 67.2048343442 258.170143276 62.6142578125 262.834960938 c 0
 61.896484375 263.564453125 49.5 285.301757812 34.9423828125 311.354492188 c 2
 8.5712890625 358.551757812 l 1
 29.7431640625 368.794921875 l 2
 58.759765625 382.833007812 109.599609375 394.255859375 157.142578125 397.416992188 c 2
 197.256835938 400.084960938 l 1
 179.94140625 423.495117188 l 2
 138.329101562 479.75390625 124.055664062 513.260742188 123.969726562 554.892578125 c 0
389.515625 588.874023438 m 0
 378.888826314 661.84772061 255.778320442 669.735186277 220.39453125 611.529296875 c 0
 203.593111699 583.891496588 208.364956223 485.426175858 281.200195312 434.135742188 c 0
 305.813476562 416.803710938 309.799804688 417.786132812 341 448.874023438 c 0
 380.452148438 488.18359375 397.158203125 536.390625 389.515625 588.874023438 c 0
406 168.629882812 m 0
 406 170.17423394 394.268365212 260.019165566 321.314453125 297.775390625 c 0
 310.9140625 303.157226562 301.03125 307.578125 299.400390625 307.578125 c 0
 293.412109375 307.578125 258.409179688 281.525390625 248.670898438 269.8203125 c 0
 224.048828125 240.227539062 212.857421875 204.122070312 212.857421875 154.28125 c 2
 212.857421875 119.543945312 l 1
 263 73.4794921875 l 1
 305.713867188 73.650390625 l 2
 351.400390625 73.833984375 359.063476562 76.07421875 372.291992188 93.1142578125 c 0
 383.723632812 107.83984375 406 157.745117188 406 168.629882812 c 0
EndSplineSet
EndChar
StartChar: u1E4E4
Encoding: 22 124132 20
Width: 496
Flags: W
AnchorPoint: "top" 214 750 basechar 0
AnchorPoint: "bottom" 264 -42 basechar 0
LayerCount: 2
Back
Fore
SplineSet
167.168945312 704.553710938 m 4
 194.784179688 711.829101562 272.70703125 710.116210938 298.895507812 701.658203125 c 4
 412.757701424 664.886288336 455.441026765 503.529057391 453.79296875 501.609375 c 4
 453.297530293 501.03121027 395.402205563 457.978649656 388.40625 462.59765625 c 4
 382.249739409 466.6613672 366.744034167 544.95455768 336.274414062 580.741210938 c 4
 289.473539932 635.709361618 171.370140622 661.466771263 135.453125 546.721679688 c 4
 128.660926444 525.022483684 117.121716573 470.689505952 154.155273438 428.767578125 c 4
 175.189453125 404.958984375 180.182617188 403.618164062 247.791992188 403.618164062 c 6
 308.41796875 403.618164062 l 5
 308.41796875 314.87109375 l 5
 245.887695312 314.87109375 l 6
 175.104492188 314.87109375 168.219726562 312.9765625 143.045898438 286.568359375 c 4
 94.7295349233 235.881417726 97.7281583136 76.7949569014 246.205078125 77.8515625 c 4
 283.66015625 78.1181640625 304.490234375 84.4228515625 325.55859375 101.8671875 c 4
 357.55078125 128.356445312 372.984375 165.111328125 371.369140625 210.963867188 c 6
 370.313476562 240.916015625 l 5
 470.298828125 240.916015625 l 5
 470.235351562 223.536132812 l 6
 470.104492188 187.66796875 453.15234375 125.028320312 435.409179688 94.853515625 c 4
 412.579101562 56.0263671875 370.313476562 23.138671875 322.701171875 7.1533203125 c 4
 289.038085938 -4.1494140625 217.3203125 -4.9111328125 183.040039062 5.6708984375 c 4
 131.936523438 21.4443359375 93.1708984375 50.3427734375 70.849609375 89.306640625 c 4
 38.4375 145.8828125 29.8505859375 243.533203125 52.6728515625 296.012695312 c 4
 61.83984375 317.08984375 84.130859375 341.837890625 99.8779296875 348.418945312 c 4
 110.03515625 352.665039062 111.622070312 354.90234375 111.622070312 364.975585938 c 4
 111.622070312 375.4296875 110.352539062 377.061523438 99.2431640625 380.887695312 c 4
 55.4244594126 395.979655664 35.522749755 499.849327984 35.6123046875 521.20703125 c 4
 35.8693668708 582.453299893 77.0929034829 680.826675306 167.168945312 704.553710938 c 4
EndSplineSet
EndChar
StartChar: u1E4E5
Encoding: 124133 124133 21
Width: 694
Flags: HW
LayerCount: 2
Fore
SplineSet
86.9560546875 413.043945312 m 0
 86.9560546875 795.65234375 165.357421875 802.817382812 182.102539062 421.739257812 c 0
 199.87109375 17.3916015625 295.365234375 -1.6435546875 312.979492188 395.65234375 c 0
 324.930664062 665.217773438 334.91015625 692.598632812 426.086914062 705.970703125 c 0
 600.896484375 731.609375 652.173828125 643.478515625 652.173828125 317.391601562 c 0
 652.173828125 78.2607421875 638.94140625 17.3916015625 586.956054688 17.3916015625 c 0
 535.517578125 17.3916015625 521.739257812 82.6083984375 521.739257812 326.086914062 c 0
 521.739257812 552.173828125 507.1953125 629.546875 467.391601562 615.217773438 c 0
 435.122070312 603.600585938 404.211914062 482.608398438 391.3046875 317.391601562 c 0
 373.981445312 95.65234375 353.668945312 36.1953125 291.3046875 24.6826171875 c 0
 141.170898438 -3.0341796875 86.9560546875 100 86.9560546875 413.043945312 c 0
EndSplineSet
EndChar
StartChar: u1E4E6
Encoding: 124134 124134 22
Width: 730
Flags: HW
LayerCount: 2
Fore
SplineSet
333.5859375 727.272460938 m 0
 352.708984375 776.446289062 400 799.29296875 463.63671875 790.100585938 c 0
 606.517578125 769.462890625 709.313476562 486.36328125 654.799804688 263.63671875 c 0
 618.086914062 113.63671875 596.928711774 93.9804592694 459.090820312 81.818359375 c 0
 340.909179688 71.390625 234.986085911 16.1494183106 226 140 c 0
 214.280281479 301.526828294 274.015625 356.421875 112 280 c 4
 44.865234375 248.333007812 97.2548828125 335.5234375 164 424 c 4
 269.157226562 563.396484375 314.534496693 500.000108717 285.314453125 322.727539062 c 0
 268.08203125 218.181640625 277.012695312 163.63671875 311.36328125 163.63671875 c 0
 340.984375 163.63671875 363.63671875 222.727539062 363.63671875 300 c 0
 363.63671875 377.272460938 383.333007812 436.36328125 409.090820312 436.36328125 c 0
 434.848632812 436.36328125 454.545898438 377.272460938 454.545898438 300 c 0
 454.545898438 222.727539062 474.2421875 163.63671875 500 163.63671875 c 0
 525.973632812 163.63671875 545.454101562 190.909179688 545.454101562 227.272460938 c 0
 545.454101562 263.63671875 555.194335938 317.208007812 568.181640625 352.272460938 c 0
 580.578125 385.744140625 545.454101562 434.123046875 490.909179688 458.70703125 c 0
 363.63671875 516.069335938 296.211914062 631.168945312 333.5859375 727.272460938 c 0
538.63671875 593.181640625 m 0
 530.037109375 638.63671875 495.577148438 686.60546875 463.63671875 697.584960938 c 0
 383.553710938 725.11328125 395.454101562 641.29296875 481.818359375 569.526367188 c 0
 544.717773438 517.2578125 552.395507812 520.454101562 538.63671875 593.181640625 c 0
EndSplineSet
EndChar
StartChar: u1E4E7
Encoding: 124135 124135 23
Width: 688
Flags: HW
LayerCount: 2
Fore
SplineSet
112.5 732.166992188 m 0
 154.891601562 772.862304688 200.98046875 762.5 218.504882812 708.333007812 c 0
 229.096679688 675.595703125 258.333007812 678.19140625 320.833007812 717.419921875 c 0
 502.919921875 831.708007812 625 662.5 625 295.833007812 c 0
 625 141.666992188 609.694335938 91.6669921875 562.5 91.6669921875 c 0
 513.671875 91.6669921875 500 150 500 358.333007812 c 0
 500 637.5 455.7890625 717.9140625 350 631.166992188 c 0
 305.127929688 594.372070312 301.762695312 564.583007812 335.416992188 502.083007812 c 0
 359.065429688 458.1640625 373.423828125 350 366.666992188 266.666992188 c 0
 355.180664062 125 344.03125 112.5 229.166992188 112.5 c 0
 120.833007812 112.5 102.22265625 128.333007812 89.5830078125 231.25 c 0
 81.537109375 296.767578125 97.4140625 404.166992188 125 470.833007812 c 0
 161.20703125 558.333007812 162.356445312 607.18359375 129.166992188 647.916992188 c 0
 105.401367188 677.083007812 97.376953125 717.6484375 112.5 732.166992188 c 0
284.709960938 295.833007812 m 0
 302.446289062 416.666992188 231.263671875 501.5546875 193.866210938 404.166992188 c 0
 178.90625 365.208007812 166.666992188 295.833007812 166.666992188 250 c 0
 166.666992188 136.053710938 266.97265625 175 284.709960938 295.833007812 c 0
EndSplineSet
EndChar
StartChar: u1E4E8
Encoding: 124136 124136 24
Width: 722
Flags: HW
LayerCount: 2
Fore
SplineSet
50 725 m 0
 50 890.384765625 199.53125 790 251.09375 590 c 0
 376.1328125 105 382.141601562 100.5 451.381835938 440 c 0
 516.64453125 760 561.341796875 832.955078125 655 772.352539062 c 0
 685.434570312 752.66015625 686.413085938 717.5 657.5 682.5 c 0
 631.66015625 651.219726562 581.5 482.5 547.5 312.5 c 0
 492.5 37.5 471.200195312 0 370 0 c 0
 268.416992188 0 248 35 195 300 c 0
 162 465 115.875 612.375 92.5 627.5 c 0
 68.2138671875 643.213867188 50 685 50 725 c 0
EndSplineSet
EndChar
StartChar: u1E4E9
Encoding: 124137 124137 25
Width: 760
Flags: HW
LayerCount: 2
Fore
SplineSet
80 714.420898438 m 4
 80 764.225585938 133.263671875 787.052734375 249.473632812 787.052734375 c 4
 433.473632812 787.052734375 453.010742188 760.1640625 351.5 646.631835938 c 4
 234.60546875 515.89453125 234.427734375 327.45703125 351.157226562 282.752929688 c 4
 481.203125 232.948242188 564.209960938 346.420898438 564.209960938 574 c 4
 564.209960938 728.947265625 584.01953125 787.052734375 636.841796875 787.052734375 c 4
 694.947265625 787.052734375 709.473632812 709.579101562 709.473632812 399.684570312 c 4
 709.473632812 89.7890625 694.947265625 12.31640625 636.841796875 12.31640625 c 4
 597.58203125 12.31640625 564.209960938 53.4736328125 564.209960938 101.89453125 c 4
 564.209960938 172.940429688 535.157226562 186.981445312 423.7890625 169.758789062 c 4
 230.62109375 139.887695312 112.594726562 268.947265625 138.239257812 482 c 4
 148.73046875 569.158203125 235.787109375 677.814453125 214.659179688 677.814453125 c 4
 193.998046875 677.814453125 80 675.684570312 80 714.420898438 c 4
EndSplineSet
EndChar
StartChar: u1E4EA
Encoding: 124138 124138 26
Width: 694
Flags: HW
LayerCount: 2
Fore
SplineSet
388.695116752 348 m 0
 366 324 368 260 388 248 c 1024
202 238 m 1
 189.287109375 196.01953125 l 1
 219.287109375 164.01953125 l 1
 262 174 l 1
 274.712890625 215.98046875 l 1
 244.712890625 247.98046875 l 1
 202 238 l 1
100 745.454101562 m 0
 175.524414062 820.979492188 343.181640625 813.63671875 411.36328125 731.818359375 c 0
 446.875 689.204101562 467.019585711 606.690010819 439.661132812 518.181640625 c 0
 417.973879211 448.020382698 388.695116752 348 388.695116752 348 c 1
 382.111677842 346.428273354 289.980472548 163.701294334 440.909179688 177.971679688 c 0
 523.08469636 185.741416219 509.721851628 145.094280678 509.041015625 445.454101562 c 0
 508.02336078 894.406016249 598.1808871 851.419471659 613.63671875 404.545898438 c 2
 625 76 l 1
 386.36328125 95.4541015625 l 2
 185.270185495 111.847578345 157.181640625 108.818359375 145.454101562 190.909179688 c 0
 136.538085938 253.321289062 172.727539062 313.177734375 250 363.827148438 c 0
 405.741210938 465.91015625 400 677.888671875 240.909179688 699.4609375 c 0
 163.63671875 709.938476562 136.36328125 689.328125 136.36328125 620.454101562 c 0
 136.36328125 570.454101562 115.299804688 527.272460938 90.9091796875 527.272460938 c 0
 25.568359375 527.272460938 31.818359375 677.272460938 100 745.454101562 c 0
EndSplineSet
EndChar
StartChar: u1E4EB
Encoding: 124139 124139 27
Width: 688
Flags: HW
LayerCount: 2
Fore
SplineSet
104.810546875 677.272460938 m 0
 146.403320312 787.12109375 348.553710938 777.272460938 384.7109375 663.63671875 c 0
 407.142578125 593.135742188 438.63671875 578.849609375 525 600 c 0
 606.818359375 620.037109375 636.36328125 607.977539062 636.36328125 554.545898438 c 0
 636.36328125 505.194335938 595.454101562 481.818359375 509.090820312 481.818359375 c 0
 363.63671875 481.818359375 272.727539062 406.643554688 272.727539062 286.36328125 c 0
 272.727539062 181.818359375 400 134.217773438 504.545898438 199.662109375 c 0
 622.727539062 273.643554688 677.10546875 170.032226562 563.63671875 87.0712890625 c 0
 372.520507812 -52.6591796875 0.623997151121 141.4919196 147.434570312 318.181640625 c 4
 217.392806537 402.377900987 305.088282518 510.543188311 122.727539062 531.818359375 c 4
 74.8104136135 537.408625249 89.3203125 636.36328125 104.810546875 677.272460938 c 0
311.36328125 615.909179688 m 0
 319.786132812 641.176757812 290.909179688 663.63671875 250 663.63671875 c 0
 209.090820312 663.63671875 181.283203125 641.176757812 190.909179688 615.909179688 c 0
 201.298828125 588.63671875 227.59765625 568.181640625 252.272460938 568.181640625 c 0
 276.948242188 568.181640625 302.272460938 588.63671875 311.36328125 615.909179688 c 0
EndSplineSet
EndChar
StartChar: u1E4EC
Encoding: 124140 124140 28
Width: 3
GlyphClass: 4
Flags: HW
LayerCount: 2
Fore
SplineSet
-195 1020 m 5
 -144.626933041 1023.24871131 l 5
 -116.626933041 981.248711306 l 5
 -139 936 l 5
 -189.373066959 932.751288694 l 5
 -217.373066959 974.751288694 l 5
 -195 1020 l 5
EndSplineSet
EndChar
StartChar: u1E4ED
Encoding: 31 124141 29
Width: 0
GlyphClass: 4
Flags: W
AnchorPoint: "top" -198 765 mark 0
LayerCount: 2
Fore
SplineSet
-44 837 m 25
 97 969 l 25
 148 924 l 25
 -2 810 l 25
 -44 837 l 25
EndSplineSet
EndChar
StartChar: u1E4EE
Encoding: 124142 124142 30
Width: 5
Flags: HMW
LayerCount: 2
Fore
SplineSet
-894 -76 m 5
 -829.126953125 -47.63671875 l 5
 -772.126953125 -89.63671875 l 5
 -780 -160 l 5
 -844.873046875 -188.36328125 l 5
 -901.873046875 -146.36328125 l 5
 -894 -76 l 5
EndSplineSet
EndChar
StartChar: u1E4EF
Encoding: 33 124143 31
Width: 0
GlyphClass: 4
Flags: W
AnchorPoint: "top" -7 770 mark 0
LayerCount: 2
Fore
SplineSet
292 825 m 0
 247 865 221.944272167 894.82140481 164 913 c 0
 113 929 79.8692114297 918.725477143 28 909 c 0
 -4 903 -17.9834322341 887.961699717 -48 875 c 0
 -92 856 -113.869354284 825.145022126 -162 827 c 0
 -244.164705882 830.166666667 -276.117647059 857.611111111 -356 865 c 1
 -291 818 -246.844209654 794.913684057 -168 781 c 0
 -117 772 -88 793 -40 811 c 0
 0 826 14 850 54 865 c 0
 78 874 93.921879312 877.575108893 120 873 c 0
 177 863 203.498047925 841.125488019 260 827 c 0
 272 824 301 817 292 825 c 0
EndSplineSet
EndChar
StartChar: u1E4F0
Encoding: 124144 124144 32
Width: 802
Flags: HW
LayerCount: 2
Fore
SplineSet
250.537109375 675 m 0
 399.055664062 853.461914062 650 665 650 375 c 0
 650 45 375.51171875 -113.83984375 217.978515625 125 c 0
 128.936523438 260 146.072265625 549.473632812 250.537109375 675 c 0
450 375 m 0
 450 560 428.461914062 700 400 700 c 0
 371.538085938 700 350 560 350 375 c 0
 350 190 371.538085938 50 400 50 c 0
 428.461914062 50 450 190 450 375 c 0
EndSplineSet
EndChar
StartChar: u1E4F1
Encoding: 124145 124145 33
Width: 436
Flags: HW
LayerCount: 2
Fore
SplineSet
173.913085938 434.782226562 m 0
 173.913085938 678.260742188 188.21484375 760.068359375 228.260742188 745.65234375 c 0
 263.225585938 733.064453125 287.260742188 615.217773438 295.65234375 415.217773438 c 0
 306.415039062 158.6953125 296.9140625 104.34765625 241.3046875 104.34765625 c 0
 186.327148438 104.34765625 173.913085938 165.217773438 173.913085938 434.782226562 c 0
EndSplineSet
EndChar
StartChar: u1E4F2
Encoding: 124146 124146 34
Width: 682
Flags: HW
LayerCount: 2
Fore
SplineSet
136.36328125 413.63671875 m 2
 136.36328125 827.272460938 217.206054688 875.04296875 236.36328125 472.727539062 c 2
 250 186.36328125 l 1
 445.454101562 172.241210938 l 2
 728.75390625 151.771484375 681.818359375 72.7275390625 386.36328125 72.7275390625 c 2
 136.36328125 72.7275390625 l 1
 136.36328125 413.63671875 l 2
EndSplineSet
EndChar
StartChar: u1E4F3
Encoding: 124147 124147 35
Width: 864
Flags: HW
LayerCount: 2
Fore
SplineSet
139.852539062 756.888671875 m 4
 181.008789062 823.555664062 777.77734375 833.950195312 777.77734375 768 c 4
 777.77734375 743.53515625 676.630859375 587.444335938 552.77734375 420.77734375 c 6
 327.77734375 118 l 5
 555.555664062 100.744140625 l 6
 893.567382812 75.13671875 827.77734375 -20.888671875 472.22265625 -20.888671875 c 4
 283.333007812 -20.888671875 166.666992188 2.4443359375 166.666992188 40.22265625 c 4
 166.666992188 73.32421875 255.787109375 223.555664062 361.111328125 368 c 4
 466.435546875 512.444335938 555.555664062 649.944335938 555.555664062 668 c 4
 555.555664062 686.107421875 452.77734375 701.333007812 330.555664062 701.333007812 c 4
 197.22265625 701.333007812 119.528320312 723.966796875 139.852539062 756.888671875 c 4
EndSplineSet
EndChar
StartChar: u1E4F4
Encoding: 124148 124148 36
Width: 834
Flags: HW
LayerCount: 2
Fore
SplineSet
149.416992188 399 m 4
 149.416992188 616.05859375 171.016601562 796.05859375 197.063476562 796.05859375 c 4
 224.033203125 796.05859375 284.916015625 735.176757812 337.357421875 655.764648438 c 6
 430.004882812 515.470703125 l 5
 504.453125 658.412109375 l 6
 628.670898438 896.909179688 703.927734375 801.352539062 721.262695312 383.1171875 c 4
 734.2109375 70.7646484375 722.247070312 1.94140625 655.004882812 1.94140625 c 4
 591.8828125 1.94140625 572.9453125 65.470703125 572.9453125 277.235351562 c 4
 572.9453125 531.352539062 567.040039062 544.587890625 496.181640625 449.294921875 c 4
 419.416992188 346.05859375 419.416992188 346.05859375 340.004882812 451.94140625 c 4
 265.88671875 550.765625 260.416015625 539.294921875 257.9453125 279.8828125 c 4
 256.483398438 126.352539062 231.6015625 1.94140625 202.357421875 1.94140625 c 4
 172.004882812 1.94140625 149.416992188 171.352539062 149.416992188 399 c 4
EndSplineSet
EndChar
StartChar: u1E4F5
Encoding: 39 124149 37
Width: 623
Flags: HW
LayerCount: 2
Back
Fore
SplineSet
11.904296875 616.28125 m 5
 11.904296875 709.844726562 l 5
 560.154296875 709.844726562 l 5
 567.02318753 702.793369822 573.892324539 695.742259435 580.76171875 688.69140625 c 5
 583.767578125 326.642578125 l 5
 555.431640625 298.98046875 l 5
 114.942382812 298.98046875 l 5
 114.942382812 91.5146484375 l 5
 587.202148438 91.5146484375 l 5
 587.202148438 -2.048828125 l 5
 39.380859375 -2.048828125 l 5
 16.197265625 20.732421875 l 5
 16.197265625 361.626953125 l 5
 39.380859375 384.408203125 l 5
 471.283203125 384.408203125 l 5
 471.283203125 616.28125 l 5
 11.904296875 616.28125 l 5
EndSplineSet
EndChar
StartChar: u1E4F6
Encoding: 40 124150 38
Width: 646
Flags: HW
LayerCount: 2
Back
Fore
SplineSet
20.2705078125 681.346679688 m 5
 31.0780867039 689.600624234 41.8853824846 697.85485189 52.6923828125 706.109375 c 5
 616.833007812 706.109375 l 5
 616.833007812 620.861328125 l 5
 140.879882812 620.861328125 l 5
 143.473632812 -4.287109375 l 5
 20.2705078125 -4.287109375 l 5
 20.2705078125 681.346679688 l 5
EndSplineSet
EndChar
StartChar: u1E4F7
Encoding: 124151 124151 39
Width: 762
Flags: HW
LayerCount: 2
Fore
SplineSet
585 737 m 0
 661.666992188 813.666992188 700 757 700 567 c 2
 700 367 l 1
 475 389 l 2
 250 389 250 389 250 214 c 0
 250 119 227.142578125 17 200 17 c 0
 172.22265625 17 142.433597292 117.445370808 150 242 c 2
 163 456 l 5
 350 467 l 2
 524.42045441 477.26002673 550 481.6875 550 584.5 c 0
 550 649.5 565.638671875 717.638671875 585 737 c 0
EndSplineSet
EndChar
StartChar: u1E4F8
Encoding: 124152 124152 40
Width: 752
Flags: HW
LayerCount: 2
Fore
SplineSet
100 550 m 2
 100 660 122.5 750 150 750 c 0
 177.142578125 750 200 670 200 575 c 0
 200 400 200 400 425 400 c 2
 650 400 l 1
 650 200 l 2
 650 55 629.375 0 575 0 c 0
 523.571289062 0 500 55 500 175 c 0
 500 345.625 495 350 300 350 c 2
 100 350 l 1
 100 550 l 2
EndSplineSet
EndChar
StartChar: u1E4F9
Encoding: 124153 124153 41
Width: 736
Flags: HW
LayerCount: 2
Fore
SplineSet
52.6318359375 709.420898438 m 4
 52.6318359375 768.432617188 118.420898438 788.368164062 313.158203125 788.368164062 c 4
 455.262695312 788.368164062 588.516601562 764.4453125 606.315429688 735.737304688 c 4
 658.526367188 651.526367188 419.849609375 -1.10546875 336.841796875 -1.10546875 c 4
 237.59375 -1.10546875 242.10546875 51.5263671875 368.420898438 367.315429688 c 6
 473.684570312 630.473632812 l 5
 263.158203125 630.473632812 l 6
 110.526367188 630.473632812 52.6318359375 652.184570312 52.6318359375 709.420898438 c 4
EndSplineSet
EndChar
